<svg xmlns="http://www.w3.org/2000/svg" viewBox="0 0 600 325" id="svg2" width="600" height="325"><style id="style4">.s0{-inkscape-font-specification:&amp;apos;Bitstream Charter Bold&amp;apos;;font-family:&amp;apos;Bitstream Charter&amp;apos;;font-weight:700}.s1{fill:#ff4500}.s2{fill:#000;font-family:sans-serif;font-size:27;letter-spacing:0;line-height:125;word-spacing:0}</style><g id="g8" style="line-height:125" transform="matrix(1.95466 0 0 1.95466 -142.495 -1705.211)" font-size="172.6" font-family="sans-serif" letter-spacing="0" word-spacing="0"><path style="-inkscape-font-specification:'Bitstream Charter Bold'" id="path10" class="s0" d="M72.7 885v8.5l10.2.9 2.8 2.4v92l-2.8 2.8-10.2.9v8.5h48.7v-8.5l-10.5-.9-2.8-2.8V950h2.9c17.4 0 21.9 7.4 27.3 23.8 2.8 8.3 4.3 16.1 13.3 23 4.1 3.3 10.5 5.4 18 5.4 5.4 0 11.2-.5 17.3-1.4v-8.3h-2.2c-11.6 0-16.7-2.6-20.4-12.1-3.3-8.6-4.7-18-10-25.5-4-5.5-9.8-8.8-18.1-10.7 19.5-3.6 29.7-13.6 29.7-29.5 0-19.2-13.8-29.5-40.6-29.5H72.8zm35.4 9.8h7.9c16.7 0 25.5 7.9 25.5 22.1 0 15.9-8.8 23.1-27.3 23.1-1.9 0-4 0-6.2-.2v-45.1zm103.5-21.6l-25.5 8.1v6.7h12.6v101.7l-2.4 2.6-8.8.7v7.8h42.6V993l-7.6-.7-2.6-2.6v-57c6.6-1.9 12.1-2.9 16.6-2.9 10.7 0 15.5 5.9 15.5 18.6v41.3l-2.4 2.6-7.4.7v7.8h42.3V993l-9.1-.7-2.2-2.6v-46.3c0-19.2-7.8-28.7-23.7-28.7-7.8 0-17.1 3.8-29.5 10.5v-52.1h-8.3zm74.2 43.7v7.4l10.4 1.6 30.7 77c-4.3 10.4-9 17.4-13.5 21.1l-15-10.4c-5.7 2.9-9 7.3-9 12.3 0 6.6 6.4 12.8 14.8 12.8 11.4 0 23.7-11.4 32.1-31.8l33.3-81 9.3-1.6v-7.4h-33.1v7.4l9.1 1 1.6 2.6-18.8 48.7-18.6-48.9 1.7-2.4 8.8-1v-7.4h-43.8z" font-weight="700" font-family="Bitstream Charter"/></g></svg>