<svg xmlns="http://www.w3.org/2000/svg" viewBox="0 0 600 200" id="svg2"><style id="style4">.s0{-inkscape-font-specification:&amp;apos;Bitstream Charter Bold&amp;apos;;font-family:&amp;apos;Bitstream Charter&amp;apos;;font-weight:700}.s1{fill:#ff4500}.s2{fill:#000;font-family:sans-serif;font-size:27;letter-spacing:0;line-height:125;word-spacing:0}</style><g transform="translate(-5.093 -868.399) scale(1.01855)" id="g6"><g transform="translate(-1.817 -8.603)" style="line-height:125" id="g8" font-size="172.6" font-family="sans-serif" letter-spacing="0" word-spacing="0"><path d="M72.7 885v8.5l10.2.9 2.8 2.4v92l-2.8 2.8-10.2.9v8.5h48.7v-8.5l-10.5-.9-2.8-2.8V950h2.9c17.4 0 21.9 7.4 27.3 23.8 2.8 8.3 4.3 16.1 13.3 23 4.1 3.3 10.5 5.4 18 5.4 5.4 0 11.2-.5 17.3-1.4v-8.3h-2.2c-11.6 0-16.7-2.6-20.4-12.1-3.3-8.6-4.7-18-10-25.5-4-5.5-9.8-8.8-18.1-10.7 19.5-3.6 29.7-13.6 29.7-29.5 0-19.2-13.8-29.5-40.6-29.5H72.8zm35.4 9.8h7.9c16.7 0 25.5 7.9 25.5 22.1 0 15.9-8.8 23.1-27.3 23.1-1.9 0-4 0-6.2-.2v-45.1zm103.5-21.6l-25.5 8.1v6.7h12.6v101.7l-2.4 2.6-8.8.7v7.8h42.6V993l-7.6-.7-2.6-2.6v-57c6.6-1.9 12.1-2.9 16.6-2.9 10.7 0 15.5 5.9 15.5 18.6v41.3l-2.4 2.6-7.4.7v7.8h42.3V993l-9.1-.7-2.2-2.6v-46.3c0-19.2-7.8-28.7-23.7-28.7-7.8 0-17.1 3.8-29.5 10.5v-52.1h-8.3zm74.2 43.7v7.4l10.4 1.6 30.7 77c-4.3 10.4-9 17.4-13.5 21.1l-15-10.4c-5.7 2.9-9 7.3-9 12.3 0 6.6 6.4 12.8 14.8 12.8 11.4 0 23.7-11.4 32.1-31.8l33.3-81 9.3-1.6v-7.4h-33.1v7.4l9.1 1 1.6 2.6-18.8 48.7-18.6-48.9 1.7-2.4 8.8-1v-7.4h-43.8z" class="s0" id="path10" style="-inkscape-font-specification:'Bitstream Charter Bold'" font-weight="700" font-family="Bitstream Charter"/></g><path id="rect12" fill="#ff4500" d="M5 989.2h589.1v2.6H5z"/><path id="rect14" fill="#ff4500" d="M5 946h589.1v2.6H5z"/><g transform="translate(-1.817 -8.603)" class="s2" id="g16" style="line-height:125" font-size="27" font-family="sans-serif" letter-spacing="0" word-spacing="0"><path d="M478.5 988.7v7.2h4.3q2.1 0 3.2-.9 1-.9 1-2.7 0-1.8-1-2.7-1-.9-3.2-.9h-4.3zm0-8.1v5.9h3.9q1.9 0 2.9-.7t1-2.2q0-1.5-1-2.2-.9-.7-2.9-.7h-3.9zm-2.7-2.2h6.8q3 0 4.7 1.3 1.6 1.3 1.6 3.6 0 1.8-.8 2.9-.8 1.1-2.5 1.3 2 .4 3 1.8 1.1 1.3 1.1 3.3 0 2.6-1.8 4.1-1.8 1.4-5.1 1.4h-7.1v-19.7zm25.1 12.3q-2.9 0-4.1.7-1.1.7-1.1 2.3 0 1.3.8 2.1.9.8 2.3.8 2 0 3.2-1.4 1.2-1.4 1.2-3.8v-.5h-2.4zm4.8-1v8.4h-2.4v-2.2q-.8 1.3-2.1 2-1.2.6-3 .6-2.3 0-3.6-1.3-1.3-1.3-1.3-3.4 0-2.5 1.7-3.8 1.7-1.3 5-1.3h3.4v-.2q0-1.7-1.1-2.6-1.1-.9-3.1-.9-1.3 0-2.5.3t-2.3.9V984q1.3-.5 2.6-.8 1.3-.3 2.4-.3 3.2 0 4.8 1.7 1.6 1.7 1.6 5zm14.4-5.9v2.3q-1-.5-2.1-.8-1.1-.3-2.3-.3-1.8 0-2.7.6-.9.6-.9 1.7 0 .8.6 1.3t2.6.9l.8.2q2.6.6 3.7 1.6t1.1 2.8q0 2.1-1.6 3.3-1.6 1.2-4.5 1.2-1.2 0-2.5-.2t-2.7-.7v-2.5q1.3.7 2.6 1.1 1.3.3 2.6.3 1.7 0 2.6-.6.9-.6.9-1.7 0-1-.7-1.5t-2.9-1l-.8-.2q-2.3-.5-3.3-1.4-1-1-1-2.7 0-2.1 1.5-3.2t4.2-1.1q1.3 0 2.5.2t2.2.6zm17.3 6.3v1.2h-11.1q.2 2.5 1.5 3.8 1.4 1.3 3.8 1.3 1.4 0 2.7-.3 1.3-.3 2.6-1v2.3q-1.3.6-2.7.8-1.4.3-2.8.3-3.5 0-5.6-2.1-2.1-2.1-2.1-5.6 0-3.6 1.9-5.7 2-2.1 5.3-2.1 3 0 4.7 1.9 1.7 1.9 1.7 5.2zm-2.4-.7q0-2-1.1-3.2-1.1-1.2-2.9-1.2-2 0-3.3 1.1-1.2 1.1-1.4 3.2h8.6zm5.2.2h7.1v2.2h-7.1v-2.2zm10.9-12h2.4v20.5h-2.4v-20.5zm7.5 5.7h2.4v14.8h-2.4v-14.8zm0-5.7h2.4v3.1h-2.4v-3.1zm19.8 11.6v8.9H576v-8.8q0-2.1-.8-3.1t-2.4-1q-2 0-3.1 1.3t-1.1 3.4v8.3h-2.4v-14.8h2.4v2.3q.9-1.3 2-2 1.2-.7 2.7-.7 2.5 0 3.8 1.6 1.3 1.6 1.3 4.6zm17.5.9v1.2h-11.1q.2 2.5 1.5 3.8 1.4 1.3 3.8 1.3 1.4 0 2.7-.3 1.3-.3 2.6-1v2.3q-1.3.6-2.7.8-1.4.3-2.8.3-3.5 0-5.6-2.1-2.1-2.1-2.1-5.6 0-3.6 1.9-5.7 2-2.1 5.3-2.1 3 0 4.7 1.9 1.7 1.9 1.7 5.2zm-2.4-.7q0-2-1.1-3.2-1.1-1.2-2.9-1.2-2 0-3.3 1.1-1.2 1.1-1.4 3.2h8.6z" id="path18"/></g><g transform="translate(-1.817 -8.603)" class="s2" id="g20" style="line-height:125" font-size="27" font-family="sans-serif" letter-spacing="0" word-spacing="0"><path d="M447.2 935.9h2.7v17.4h9.6v2.2h-12.2v-19.7zm14.9 4.9h2.4v14.8h-2.4v-14.8zm0-5.7h2.4v3.1h-2.4v-3.1zm19.7 11.5v8.9h-2.4v-8.8q0-2.1-.8-3.1t-2.4-1q-2 0-3.1 1.3t-1.1 3.4v8.3h-2.4v-14.8h2.4v2.3q.9-1.3 2-2 1.2-.7 2.7-.7 2.5 0 3.8 1.6 1.3 1.6 1.3 4.6zm17.5.9v1.2h-11.1q.2 2.5 1.5 3.8 1.4 1.3 3.8 1.3 1.4 0 2.7-.3 1.3-.3 2.6-1v2.3q-1.3.6-2.7.8-1.4.3-2.8.3-3.5 0-5.6-2.1-2.1-2.1-2.1-5.6 0-3.6 1.9-5.7 2-2.1 5.3-2.1 3 0 4.7 1.9 1.7 1.9 1.7 5.2zm-2.4-.7q0-2-1.1-3.2-1.1-1.2-2.9-1.2-2 0-3.3 1.1-1.2 1.1-1.4 3.2h8.6zm5.1.3h7.1v2.2H502v-2.2zm23.3-.5v8.9h-2.4v-8.8q0-2.1-.8-3.1t-2.4-1q-2 0-3.1 1.3t-1.1 3.4v8.3h-2.4v-20.5h2.4v8q.9-1.3 2-2 1.2-.7 2.7-.7 2.5 0 3.8 1.6 1.3 1.6 1.3 4.6zm17.5.9v1.2h-11.1q.2 2.5 1.5 3.8 1.4 1.3 3.8 1.3 1.4 0 2.7-.3 1.3-.3 2.6-1v2.3q-1.3.6-2.7.8-1.4.3-2.8.3-3.5 0-5.6-2.1-2.1-2.1-2.1-5.6 0-3.6 1.9-5.7 2-2.1 5.3-2.1 3 0 4.7 1.9 1.7 1.9 1.7 5.2zm-2.4-.7q0-2-1.1-3.2-1.1-1.2-2.9-1.2-2 0-3.3 1.1-1.2 1.1-1.4 3.2h8.6zm6.3-6h2.4v14.8h-2.4v-14.8zm0-5.7h2.4v3.1h-2.4v-3.1zm17.2 12.9q0-2.6-1.1-4.1-1.1-1.4-3-1.4t-3 1.4q-1.1 1.4-1.1 4.1 0 2.6 1.1 4.1 1.1 1.4 3 1.4 2 0 3-1.4 1.1-1.4 1.1-4.1zm2.4 5.7q0 3.8-1.7 5.6-1.7 1.8-5.1 1.8-1.3 0-2.4-.2-1.1-.2-2.2-.6v-2.4q1.1.6 2.1.9 1 .3 2.1.3 2.4 0 3.6-1.3 1.2-1.2 1.2-3.8v-1.2q-.8 1.3-1.9 1.9-1.2.6-2.8.6-2.7 0-4.4-2.1-1.7-2.1-1.7-5.5t1.7-5.5q1.7-2.1 4.4-2.1 1.6 0 2.8.6 1.2.6 1.9 1.9v-2.2h2.4v12.9zm17.3-7.1v8.9h-2.4v-8.8q0-2.1-.8-3.1t-2.4-1q-2 0-3.1 1.3t-1.1 3.4v8.3h-2.4v-20.5h2.4v8q.9-1.3 2-2 1.2-.7 2.7-.7 2.5 0 3.8 1.6 1.3 1.6 1.3 4.6zm7.3-10v4.2h5v1.9h-5v8q0 1.8.5 2.3.5.5 2 .5h2.5v2h-2.5q-2.8 0-3.9-1-1.1-1.1-1.1-3.8v-8h-1.8v-1.9h1.8v-4.2h2.4z" id="path22"/></g></g></svg>