<?xml version="1.0" encoding="UTF-8" standalone="no"?>
<svg
   xmlns:dc="http://purl.org/dc/elements/1.1/"
   xmlns:cc="http://creativecommons.org/ns#"
   xmlns:rdf="http://www.w3.org/1999/02/22-rdf-syntax-ns#"
   xmlns:svg="http://www.w3.org/2000/svg"
   xmlns="http://www.w3.org/2000/svg"
   xmlns:sodipodi="http://sodipodi.sourceforge.net/DTD/sodipodi-0.dtd"
   xmlns:inkscape="http://www.inkscape.org/namespaces/inkscape"
   version="1.1"
   viewBox="0 0 600 200"
   id="svg2"
   inkscape:version="0.91 r13725"
   sodipodi:docname="typography.svg">
  <metadata
     id="metadata28">
    <rdf:RDF>
      <cc:Work
         rdf:about="">
        <dc:format>image/svg+xml</dc:format>
        <dc:type
           rdf:resource="http://purl.org/dc/dcmitype/StillImage" />
      </cc:Work>
    </rdf:RDF>
  </metadata>
  <defs
     id="defs26" />
  <sodipodi:namedview
     pagecolor="#ffffff"
     bordercolor="#666666"
     borderopacity="1"
     objecttolerance="10"
     gridtolerance="10"
     guidetolerance="10"
     inkscape:pageopacity="0"
     inkscape:pageshadow="2"
     inkscape:window-width="1920"
     inkscape:window-height="1056"
     id="namedview24"
     showgrid="false"
     inkscape:zoom="3.1112698"
     inkscape:cx="487.12382"
     inkscape:cy="72.589548"
     inkscape:window-x="0"
     inkscape:window-y="24"
     inkscape:window-maximized="1"
     inkscape:current-layer="svg2" />
  <style
     id="style4">.s0{-inkscape-font-specification:'Bitstream Charter Bold';font-family:'Bitstream Charter';font-weight:bold;}.s1{fill:#ff4500;}.s2{fill:#000;font-family:sans-serif;font-size:27;letter-spacing:0;line-height:125;word-spacing:0;}</style>
  <g
     transform="matrix(1.0185504,0,0,1.0185504,-5.0927518,-868.39888)"
     id="g6">
    <g
       transform="translate(-1.8171675,-8.6032428)"
       style="font-size:172.6000061px;line-height:125;font-family:sans-serif;letter-spacing:0;word-spacing:0;fill:#000000"
       id="g8">
      <path
         d="m 72.7,885 0,8.5 10.2,0.9 2.8,2.4 0,92 -2.8,2.8 -10.2,0.9 0,8.5 48.7,0 0,-8.5 -10.5,-0.9 -2.8,-2.8 0,-38.8 c 1,0 2.1,0 2.9,0 17.4,0 21.9,7.4 27.3,23.8 2.8,8.3 4.3,16.1 13.3,23 4.1,3.3 10.5,5.4 18,5.4 5.4,0 11.2,-0.5 17.3,-1.4 l 0,-8.3 c -0.9,0 -1.6,0 -2.2,0 -11.6,0 -16.7,-2.6 -20.4,-12.1 -3.3,-8.6 -4.7,-18 -10,-25.5 -4,-5.5 -9.8,-8.8 -18.1,-10.7 19.5,-3.6 29.7,-13.6 29.7,-29.5 0,-19.2 -13.8,-29.5 -40.6,-29.5 l -52.5,0 z m 35.4,9.8 7.9,0 c 16.7,0 25.5,7.9 25.5,22.1 0,15.9 -8.8,23.1 -27.3,23.1 -1.9,0 -4,0 -6.2,-0.2 l 0,-45.1 z m 103.5,-21.6 -25.5,8.1 0,6.7 12.6,0 0,101.7 -2.4,2.6 -8.8,0.7 0,7.8 42.6,0 0,-7.8 -7.6,-0.7 -2.6,-2.6 0,-57 c 6.6,-1.9 12.1,-2.9 16.6,-2.9 10.7,0 15.5,5.9 15.5,18.6 l 0,41.3 -2.4,2.6 -7.4,0.7 0,7.8 42.3,0 0,-7.8 -9.1,-0.7 -2.2,-2.6 0,-46.3 c 0,-19.2 -7.8,-28.7 -23.7,-28.7 -7.8,0 -17.1,3.8 -29.5,10.5 l 0,-52.1 -8.3,0 z m 74.2,43.7 0,7.4 10.4,1.6 30.7,77 c -4.3,10.4 -9,17.4 -13.5,21.1 l -15,-10.4 c -5.7,2.9 -9,7.3 -9,12.3 0,6.6 6.4,12.8 14.8,12.8 11.4,0 23.7,-11.4 32.1,-31.8 l 33.3,-81 9.3,-1.6 0,-7.4 -33.1,0 0,7.4 9.1,1 1.6,2.6 -18.8,48.7 -18.6,-48.9 1.7,-2.4 8.8,-1 0,-7.4 -43.8,0 z"
         class="s0"
         id="path10"
         inkscape:connector-curvature="0"
         style="font-weight:bold;font-family:'Bitstream Charter';-inkscape-font-specification:'Bitstream Charter Bold'" />
    </g>
    <rect
       y="989.20001"
       x="5"
       height="2.5999999"
       width="589.09998"
       id="rect12"
       style="fill:#ff4500" />
    <rect
       width="589.09998"
       height="2.5999999"
       x="5"
       y="946"
       id="rect14"
       style="fill:#ff4500" />
    <g
       transform="translate(-1.8171675,-8.6032428)"
       class="s2"
       id="g16"
       style="font-size:27px;line-height:125;font-family:sans-serif;letter-spacing:0;word-spacing:0;fill:#000000">
      <path
         d="m 478.5,988.7 0,7.2 4.3,0 q 2.1,0 3.2,-0.9 1,-0.9 1,-2.7 0,-1.8 -1,-2.7 -1,-0.9 -3.2,-0.9 l -4.3,0 z m 0,-8.1 0,5.9 3.9,0 q 1.9,0 2.9,-0.7 1,-0.7 1,-2.2 0,-1.5 -1,-2.2 -0.9,-0.7 -2.9,-0.7 l -3.9,0 z m -2.7,-2.2 6.8,0 q 3,0 4.7,1.3 1.6,1.3 1.6,3.6 0,1.8 -0.8,2.9 -0.8,1.1 -2.5,1.3 2,0.4 3,1.8 1.1,1.3 1.1,3.3 0,2.6 -1.8,4.1 -1.8,1.4 -5.1,1.4 l -7.1,0 0,-19.7 z m 25.1,12.3 q -2.9,0 -4.1,0.7 -1.1,0.7 -1.1,2.3 0,1.3 0.8,2.1 0.9,0.8 2.3,0.8 2,0 3.2,-1.4 1.2,-1.4 1.2,-3.8 l 0,-0.5 -2.4,0 z m 4.8,-1 0,8.4 -2.4,0 0,-2.2 q -0.8,1.3 -2.1,2 -1.2,0.6 -3,0.6 -2.3,0 -3.6,-1.3 -1.3,-1.3 -1.3,-3.4 0,-2.5 1.7,-3.8 1.7,-1.3 5,-1.3 l 3.4,0 0,-0.2 q 0,-1.7 -1.1,-2.6 -1.1,-0.9 -3.1,-0.9 -1.3,0 -2.5,0.3 -1.2,0.3 -2.3,0.9 l 0,-2.2 q 1.3,-0.5 2.6,-0.8 1.3,-0.3 2.4,-0.3 3.2,0 4.8,1.7 1.6,1.7 1.6,5 z m 14.4,-5.9 0,2.3 q -1,-0.5 -2.1,-0.8 -1.1,-0.3 -2.3,-0.3 -1.8,0 -2.7,0.6 -0.9,0.6 -0.9,1.7 0,0.8 0.6,1.3 0.6,0.5 2.6,0.9 l 0.8,0.2 q 2.6,0.6 3.7,1.6 1.1,1 1.1,2.8 0,2.1 -1.6,3.3 -1.6,1.2 -4.5,1.2 -1.2,0 -2.5,-0.2 -1.3,-0.2 -2.7,-0.7 l 0,-2.5 q 1.3,0.7 2.6,1.1 1.3,0.3 2.6,0.3 1.7,0 2.6,-0.6 0.9,-0.6 0.9,-1.7 0,-1 -0.7,-1.5 -0.7,-0.5 -2.9,-1 l -0.8,-0.2 q -2.3,-0.5 -3.3,-1.4 -1,-1 -1,-2.7 0,-2.1 1.5,-3.2 1.5,-1.1 4.2,-1.1 1.3,0 2.5,0.2 1.2,0.2 2.2,0.6 z m 17.3,6.3 0,1.2 -11.1,0 q 0.2,2.5 1.5,3.8 1.4,1.3 3.8,1.3 1.4,0 2.7,-0.3 1.3,-0.3 2.6,-1 l 0,2.3 q -1.3,0.6 -2.7,0.8 -1.4,0.3 -2.8,0.3 -3.5,0 -5.6,-2.1 -2.1,-2.1 -2.1,-5.6 0,-3.6 1.9,-5.7 2,-2.1 5.3,-2.1 3,0 4.7,1.9 1.7,1.9 1.7,5.2 z m -2.4,-0.7 q 0,-2 -1.1,-3.2 -1.1,-1.2 -2.9,-1.2 -2,0 -3.3,1.1 -1.2,1.1 -1.4,3.2 l 8.6,0 z m 5.2,0.2 7.1,0 0,2.2 -7.1,0 0,-2.2 z m 10.9,-12 2.4,0 0,20.5 -2.4,0 0,-20.5 z m 7.5,5.7 2.4,0 0,14.8 -2.4,0 0,-14.8 z m 0,-5.7 2.4,0 0,3.1 -2.4,0 0,-3.1 z m 19.8,11.6 0,8.9 -2.4,0 0,-8.8 q 0,-2.1 -0.8,-3.1 -0.8,-1 -2.4,-1 -2,0 -3.1,1.3 -1.1,1.3 -1.1,3.4 l 0,8.3 -2.4,0 0,-14.8 2.4,0 0,2.3 q 0.9,-1.3 2,-2 1.2,-0.7 2.7,-0.7 2.5,0 3.8,1.6 1.3,1.6 1.3,4.6 z m 17.5,0.9 0,1.2 -11.1,0 q 0.2,2.5 1.5,3.8 1.4,1.3 3.8,1.3 1.4,0 2.7,-0.3 1.3,-0.3 2.6,-1 l 0,2.3 q -1.3,0.6 -2.7,0.8 -1.4,0.3 -2.8,0.3 -3.5,0 -5.6,-2.1 -2.1,-2.1 -2.1,-5.6 0,-3.6 1.9,-5.7 2,-2.1 5.3,-2.1 3,0 4.7,1.9 1.7,1.9 1.7,5.2 z m -2.4,-0.7 q 0,-2 -1.1,-3.2 -1.1,-1.2 -2.9,-1.2 -2,0 -3.3,1.1 -1.2,1.1 -1.4,3.2 l 8.6,0 z"
         id="path18"
         inkscape:connector-curvature="0" />
    </g>
    <g
       transform="translate(-1.8171675,-8.6032428)"
       class="s2"
       id="g20"
       style="font-size:27px;line-height:125;font-family:sans-serif;letter-spacing:0;word-spacing:0;fill:#000000">
      <path
         d="m 447.2,935.9 2.7,0 0,17.4 9.6,0 0,2.2 -12.2,0 0,-19.7 z m 14.9,4.9 2.4,0 0,14.8 -2.4,0 0,-14.8 z m 0,-5.7 2.4,0 0,3.1 -2.4,0 0,-3.1 z m 19.7,11.5 0,8.9 -2.4,0 0,-8.8 q 0,-2.1 -0.8,-3.1 -0.8,-1 -2.4,-1 -2,0 -3.1,1.3 -1.1,1.3 -1.1,3.4 l 0,8.3 -2.4,0 0,-14.8 2.4,0 0,2.3 q 0.9,-1.3 2,-2 1.2,-0.7 2.7,-0.7 2.5,0 3.8,1.6 1.3,1.6 1.3,4.6 z m 17.5,0.9 0,1.2 -11.1,0 q 0.2,2.5 1.5,3.8 1.4,1.3 3.8,1.3 1.4,0 2.7,-0.3 1.3,-0.3 2.6,-1 l 0,2.3 q -1.3,0.6 -2.7,0.8 -1.4,0.3 -2.8,0.3 -3.5,0 -5.6,-2.1 -2.1,-2.1 -2.1,-5.6 0,-3.6 1.9,-5.7 2,-2.1 5.3,-2.1 3,0 4.7,1.9 1.7,1.9 1.7,5.2 z m -2.4,-0.7 q 0,-2 -1.1,-3.2 -1.1,-1.2 -2.9,-1.2 -2,0 -3.3,1.1 -1.2,1.1 -1.4,3.2 l 8.6,0 z m 5.1,0.3 7.1,0 0,2.2 -7.1,0 0,-2.2 z m 23.3,-0.5 0,8.9 -2.4,0 0,-8.8 q 0,-2.1 -0.8,-3.1 -0.8,-1 -2.4,-1 -2,0 -3.1,1.3 -1.1,1.3 -1.1,3.4 l 0,8.3 -2.4,0 0,-20.5 2.4,0 0,8 q 0.9,-1.3 2,-2 1.2,-0.7 2.7,-0.7 2.5,0 3.8,1.6 1.3,1.6 1.3,4.6 z m 17.5,0.9 0,1.2 -11.1,0 q 0.2,2.5 1.5,3.8 1.4,1.3 3.8,1.3 1.4,0 2.7,-0.3 1.3,-0.3 2.6,-1 l 0,2.3 q -1.3,0.6 -2.7,0.8 -1.4,0.3 -2.8,0.3 -3.5,0 -5.6,-2.1 -2.1,-2.1 -2.1,-5.6 0,-3.6 1.9,-5.7 2,-2.1 5.3,-2.1 3,0 4.7,1.9 1.7,1.9 1.7,5.2 z m -2.4,-0.7 q 0,-2 -1.1,-3.2 -1.1,-1.2 -2.9,-1.2 -2,0 -3.3,1.1 -1.2,1.1 -1.4,3.2 l 8.6,0 z m 6.3,-6 2.4,0 0,14.8 -2.4,0 0,-14.8 z m 0,-5.7 2.4,0 0,3.1 -2.4,0 0,-3.1 z m 17.2,12.9 q 0,-2.6 -1.1,-4.1 -1.1,-1.4 -3,-1.4 -1.9,0 -3,1.4 -1.1,1.4 -1.1,4.1 0,2.6 1.1,4.1 1.1,1.4 3,1.4 2,0 3,-1.4 1.1,-1.4 1.1,-4.1 z m 2.4,5.7 q 0,3.8 -1.7,5.6 -1.7,1.8 -5.1,1.8 -1.3,0 -2.4,-0.2 -1.1,-0.2 -2.2,-0.6 l 0,-2.4 q 1.1,0.6 2.1,0.9 1,0.3 2.1,0.3 2.4,0 3.6,-1.3 1.2,-1.2 1.2,-3.8 l 0,-1.2 q -0.8,1.3 -1.9,1.9 -1.2,0.6 -2.8,0.6 -2.7,0 -4.4,-2.1 -1.7,-2.1 -1.7,-5.5 0,-3.4 1.7,-5.5 1.7,-2.1 4.4,-2.1 1.6,0 2.8,0.6 1.2,0.6 1.9,1.9 l 0,-2.2 2.4,0 0,12.9 z m 17.3,-7.1 0,8.9 -2.4,0 0,-8.8 q 0,-2.1 -0.8,-3.1 -0.8,-1 -2.4,-1 -2,0 -3.1,1.3 -1.1,1.3 -1.1,3.4 l 0,8.3 -2.4,0 0,-20.5 2.4,0 0,8 q 0.9,-1.3 2,-2 1.2,-0.7 2.7,-0.7 2.5,0 3.8,1.6 1.3,1.6 1.3,4.6 z m 7.3,-10 0,4.2 5,0 0,1.9 -5,0 0,8 q 0,1.8 0.5,2.3 0.5,0.5 2,0.5 l 2.5,0 0,2 -2.5,0 q -2.8,0 -3.9,-1 -1.1,-1.1 -1.1,-3.8 l 0,-8 -1.8,0 0,-1.9 1.8,0 0,-4.2 2.4,0 z"
         id="path22"
         inkscape:connector-curvature="0" />
    </g>
  </g>
</svg>
