<?xml version="1.0" encoding="UTF-8" standalone="no"?>
<svg
   xmlns:dc="http://purl.org/dc/elements/1.1/"
   xmlns:cc="http://creativecommons.org/ns#"
   xmlns:rdf="http://www.w3.org/1999/02/22-rdf-syntax-ns#"
   xmlns:svg="http://www.w3.org/2000/svg"
   xmlns="http://www.w3.org/2000/svg"
   xmlns:sodipodi="http://sodipodi.sourceforge.net/DTD/sodipodi-0.dtd"
   xmlns:inkscape="http://www.inkscape.org/namespaces/inkscape"
   version="1.1"
   viewBox="0 0 600 325"
   id="svg2"
   inkscape:version="0.91 r13725"
   sodipodi:docname="typography.svg"
   width="600"
   height="325">
  <metadata
     id="metadata28">
    <rdf:RDF>
      <cc:Work
         rdf:about="">
        <dc:format>image/svg+xml</dc:format>
        <dc:type
           rdf:resource="http://purl.org/dc/dcmitype/StillImage" />
        <dc:title></dc:title>
      </cc:Work>
    </rdf:RDF>
  </metadata>
  <defs
     id="defs26" />
  <sodipodi:namedview
     pagecolor="#ffffff"
     bordercolor="#666666"
     borderopacity="1"
     objecttolerance="10"
     gridtolerance="10"
     guidetolerance="10"
     inkscape:pageopacity="0"
     inkscape:pageshadow="2"
     inkscape:window-width="1920"
     inkscape:window-height="1056"
     id="namedview24"
     showgrid="false"
     inkscape:zoom="1.5556349"
     inkscape:cx="307.1216"
     inkscape:cy="67.257444"
     inkscape:window-x="0"
     inkscape:window-y="24"
     inkscape:window-maximized="1"
     inkscape:current-layer="svg2" />
  <style
     id="style4">.s0{-inkscape-font-specification:'Bitstream Charter Bold';font-family:'Bitstream Charter';font-weight:bold;}.s1{fill:#ff4500;}.s2{fill:#000;font-family:sans-serif;font-size:27;letter-spacing:0;line-height:125;word-spacing:0;}</style>
  <g
     id="g8"
     style="font-size:172.6000061px;line-height:125;font-family:sans-serif;letter-spacing:0;word-spacing:0;fill:#000000"
     transform="matrix(1.9546576,0,0,1.9546576,-142.49517,-1705.2114)">
    <path
       style="font-weight:bold;font-family:'Bitstream Charter';-inkscape-font-specification:'Bitstream Charter Bold'"
       inkscape:connector-curvature="0"
       id="path10"
       class="s0"
       d="m 72.7,885 0,8.5 10.2,0.9 2.8,2.4 0,92 -2.8,2.8 -10.2,0.9 0,8.5 48.7,0 0,-8.5 -10.5,-0.9 -2.8,-2.8 0,-38.8 c 1,0 2.1,0 2.9,0 17.4,0 21.9,7.4 27.3,23.8 2.8,8.3 4.3,16.1 13.3,23 4.1,3.3 10.5,5.4 18,5.4 5.4,0 11.2,-0.5 17.3,-1.4 l 0,-8.3 c -0.9,0 -1.6,0 -2.2,0 -11.6,0 -16.7,-2.6 -20.4,-12.1 -3.3,-8.6 -4.7,-18 -10,-25.5 -4,-5.5 -9.8,-8.8 -18.1,-10.7 19.5,-3.6 29.7,-13.6 29.7,-29.5 0,-19.2 -13.8,-29.5 -40.6,-29.5 l -52.5,0 z m 35.4,9.8 7.9,0 c 16.7,0 25.5,7.9 25.5,22.1 0,15.9 -8.8,23.1 -27.3,23.1 -1.9,0 -4,0 -6.2,-0.2 l 0,-45.1 z m 103.5,-21.6 -25.5,8.1 0,6.7 12.6,0 0,101.7 -2.4,2.6 -8.8,0.7 0,7.8 42.6,0 0,-7.8 -7.6,-0.7 -2.6,-2.6 0,-57 c 6.6,-1.9 12.1,-2.9 16.6,-2.9 10.7,0 15.5,5.9 15.5,18.6 l 0,41.3 -2.4,2.6 -7.4,0.7 0,7.8 42.3,0 0,-7.8 -9.1,-0.7 -2.2,-2.6 0,-46.3 c 0,-19.2 -7.8,-28.7 -23.7,-28.7 -7.8,0 -17.1,3.8 -29.5,10.5 l 0,-52.1 -8.3,0 z m 74.2,43.7 0,7.4 10.4,1.6 30.7,77 c -4.3,10.4 -9,17.4 -13.5,21.1 l -15,-10.4 c -5.7,2.9 -9,7.3 -9,12.3 0,6.6 6.4,12.8 14.8,12.8 11.4,0 23.7,-11.4 32.1,-31.8 l 33.3,-81 9.3,-1.6 0,-7.4 -33.1,0 0,7.4 9.1,1 1.6,2.6 -18.8,48.7 -18.6,-48.9 1.7,-2.4 8.8,-1 0,-7.4 -43.8,0 z" />
  </g>
</svg>
